<?xml version="1.0" encoding="utf-8"?>
<!-- Generator: Adobe Illustrator 23.0.2, SVG Export Plug-In . SVG Version: 6.00 Build 0)  -->
<svg version="1.1" id="Layer_1" xmlns="http://www.w3.org/2000/svg" xmlns:xlink="http://www.w3.org/1999/xlink" x="0px" y="0px"
	 viewBox="0 0 198.8 53.9" style="enable-background:new 0 0 198.8 53.9;" xml:space="preserve">
<g>
	<path d="M196.3,19.1c0,0,0.3-16.4-19.5-16.4c-11.7,0-20.9,9.1-20.9,24.2c0,17.2,10.8,24.2,21.4,24.2c14.7,0,18.5-13.9,18.5-13.9
		l-1.8,0c0,0-4.1,6.3-13.2,6.3c-7.5,0-14.2-7.3-14.2-18.2c0-13.8,5.2-18.6,10.6-18.6c11.3,0,9.4,12.4,9.4,12.4L196.3,19.1z"/>
	<path d="M95.1,19.6c0-6.2-1.5-16.9-17.8-16.9c-18.8,0-19,12.4-19,12.4l10.5-0.1c0,0-1.3-8.7,7.2-8.7c6.3,0,9.2,5,9.2,14.8v2.9
		c-2.9-1.7-6.6-2.9-10.9-2.9c-11.4,0-18.6,6.2-18.6,15c0,9.1,6.8,14.8,15.9,14.8c7.6,0,11.9-5.4,14.2-10.2l0.8,0
		c0,4.9,1.7,9.2,1.7,9.2h8.2c0,0-1.5-4.4-1.5-11.9V19.6z M74.8,44.2c-5.4,0-9.5-3.4-9.5-8.7C65.3,30,69.4,26,76,26
		c4.2,0,7,1.2,9.3,3.1l0,3l0,0C84.5,39.2,80.4,44.2,74.8,44.2z"/>
	<path d="M2.5,3.9c1.3,23.1,0,46.2,0,46.2h10.3c0,0-1.3-23.1,0-46.2H2.5z"/>
	<path d="M138.5,3.9c1.3,23.1,0,46.2,0,46.2h10.3c0,0-1.3-23.1,0-46.2H138.5z"/>
	<path d="M53.7,9.9l-1-6H35.6v0h0v0H18.5l-1,6c2.8-0.5,8.9-0.8,13.2-1c0.9,21.3-0.2,41.2-0.2,41.2h10.3c0,0-1.1-19.9-0.2-41.2
		C44.8,9.1,50.9,9.4,53.7,9.9z"/>
	<path d="M115,45.2c-0.9-21.4,0.2-41.4,0.2-41.4H105c0,0,1.3,23.1,0,46.2h9.4v0h18.1l1-8.8h-0.7C126.9,45.1,117.4,45.2,115,45.2z"/>
</g>
</svg>
