<svg width="1468" height="315" viewBox="0 0 1468 315" fill="none" xmlns="http://www.w3.org/2000/svg">
<circle cx="157.775" cy="157.775" r="153.927" fill="white"/>
<circle cx="157.5" cy="157.5" r="157.5" fill="#04B1ED"/>
<circle cx="157.499" cy="157.499" r="145.406" fill="white"/>
<mask id="mask0" mask-type="alpha" maskUnits="userSpaceOnUse" x="17" y="17" width="282" height="282">
<circle cx="157.774" cy="157.775" r="140.733" fill="#C4C4C4"/>
</mask>
<g mask="url(#mask0)">
<circle cx="157.774" cy="157.775" r="140.733" fill="#264861"/>
<path d="M41.7798 250.13L80.2615 31.334" stroke="white" stroke-width="21.4398" stroke-dasharray="65.97 5.5"/>
<path d="M271.57 251.23L233.089 32.4346" stroke="white" stroke-width="21.4398" stroke-dasharray="65.97 5.5"/>
<path d="M140.779 241.553C123.72 236.053 110.028 222.454 104.527 205.416L114.848 206.851C114.849 206.851 114.85 206.851 114.852 206.851C127.47 208.653 137.56 218.742 139.362 231.361C139.362 231.362 139.363 231.364 139.363 231.365L140.779 241.553ZM210.902 205.415C205.401 222.454 191.709 236.053 174.65 241.552L176.066 231.365C176.066 231.364 176.066 231.363 176.066 231.361C177.868 218.742 187.958 208.653 200.577 206.851C200.578 206.851 200.579 206.85 200.58 206.85L210.902 205.415ZM157.714 110.496C114.864 110.496 79.7117 145.649 79.7117 188.499C79.7117 231.349 114.864 266.502 157.714 266.502C200.565 266.502 235.717 231.349 235.717 188.499C235.717 145.649 200.565 110.496 157.714 110.496ZM157.714 132.661C180.487 132.661 200.334 146.701 208.933 166.43C196.462 161.027 178.097 155.209 157.714 155.209C137.331 155.209 118.967 161.027 106.495 166.43C115.095 146.701 134.941 132.661 157.714 132.661ZM157.714 199.625C151.581 199.625 146.588 194.632 146.588 188.499C146.588 182.366 151.581 177.373 157.714 177.373C163.848 177.373 168.84 182.366 168.84 188.499C168.84 194.632 163.848 199.625 157.714 199.625Z" fill="#BABABA" stroke="white" stroke-width="4.39791" stroke-linecap="round" stroke-linejoin="bevel"/>
<path d="M216.662 174.709C216.435 173.467 216.13 171.967 215.743 170.397C215.255 168.415 214.626 166.282 213.839 164.412C213.077 162.599 212.071 160.797 210.716 159.718L210.71 159.713L210.703 159.708C207.856 157.488 205.333 156.343 203.121 155.861C200.897 155.377 199.081 155.584 197.692 155.933L197.487 155.984L197.301 156.085C195.287 157.187 194.341 159.897 195.987 161.823C196.175 162.057 196.342 162.254 196.496 162.434C196.837 162.833 197.108 163.151 197.377 163.623L197.417 163.694L197.464 163.76C200.511 168.059 204.689 176.474 204.573 189.639C204.573 189.64 204.573 189.64 204.573 189.641L206.222 189.655C206.137 197.36 208.735 203.903 210.923 209.416C211.799 211.621 212.609 213.661 213.156 215.545L216.662 174.709ZM216.662 174.709C217.089 174.203 217.541 173.615 217.985 172.949C219.682 170.404 221.205 166.802 220.722 162.387L220.624 161.495L221.32 160.928L222.361 162.207C221.32 160.928 221.32 160.928 221.32 160.928L221.321 160.927L221.323 160.925L221.33 160.92L221.351 160.903C221.369 160.889 221.394 160.869 221.426 160.843C221.49 160.793 221.582 160.721 221.699 160.632C221.933 160.453 222.269 160.204 222.686 159.912C223.516 159.331 224.683 158.571 226.018 157.87C227.344 157.174 228.89 156.506 230.47 156.149C232.039 155.793 233.787 155.711 235.408 156.361C236.647 156.858 237.431 157.831 237.919 158.795C238.404 159.753 238.66 160.82 238.801 161.75C238.886 162.312 238.934 162.854 238.958 163.337C239.361 163.316 239.807 163.309 240.281 163.331C242.075 163.415 244.565 163.92 246.315 165.914C248.083 167.927 248.225 170.6 248.064 172.463C248.005 173.143 247.901 173.766 247.792 174.29C248.167 174.435 248.585 174.617 249.018 174.842C250.48 175.6 252.378 176.984 253.107 179.339L253.117 179.371L253.125 179.403C253.742 181.72 253.108 183.989 252.452 185.535C252.23 186.059 251.993 186.527 251.776 186.918C252.108 187.263 252.465 187.698 252.804 188.232C253.857 189.891 254.656 192.392 254.118 195.898L254.117 195.909L254.115 195.919C254.049 196.313 253.866 196.715 253.733 196.99C253.574 197.318 253.366 197.7 253.126 198.117C252.643 198.954 251.986 200.011 251.223 201.204C250.195 202.812 248.948 204.708 247.641 206.696C247.01 207.655 246.365 208.636 245.724 209.616C243.744 212.643 241.793 215.671 240.341 218.13C239.613 219.361 239.027 220.422 238.628 221.252C238.428 221.668 238.288 221.999 238.202 222.248C238.155 222.383 238.133 222.467 238.124 222.507C238.124 222.51 238.125 222.514 238.125 222.518C238.134 222.579 238.152 222.703 238.188 222.917C238.247 223.261 238.336 223.739 238.455 224.347C238.692 225.561 239.042 227.259 239.489 229.375C240.384 233.606 241.662 239.484 243.197 246.456C246.267 260.397 250.361 278.695 254.456 296.899C258.55 315.102 262.644 333.207 265.715 346.762C267.251 353.54 268.53 359.18 269.426 363.125C269.874 365.098 270.226 366.647 270.465 367.703L270.739 368.908L270.81 369.217L270.827 369.295L270.832 369.315L270.833 369.319C270.833 369.321 270.833 369.321 269.225 369.687L270.833 369.321L271.291 371.336H269.225H216.503H214.87L214.854 369.703L216.503 369.687C214.854 369.703 214.854 369.702 214.854 369.701L214.854 369.696L214.854 369.676L214.853 369.596L214.85 369.28L214.838 368.046C214.827 366.965 214.81 365.378 214.789 363.356C214.746 359.312 214.682 353.528 214.6 346.566C214.436 332.64 214.197 314.004 213.898 295.159C213.599 276.313 213.24 257.262 212.837 242.507C212.636 235.128 212.423 228.831 212.202 224.174C212.091 221.844 211.978 219.936 211.865 218.514C211.746 217.023 211.636 216.233 211.571 216L216.662 174.709Z" fill="#FAC0A1" stroke="white" stroke-width="3.29843"/>
<path d="M207.896 368.037H206.212L206.247 366.354L208.877 239.9L208.879 239.83L208.886 239.76L210.526 239.934C208.886 239.76 208.886 239.759 208.886 239.758L208.887 239.755L208.887 239.749L208.889 239.735L208.893 239.702C208.896 239.677 208.901 239.646 208.907 239.61C208.918 239.539 208.935 239.446 208.959 239.334C209.008 239.111 209.087 238.811 209.215 238.452C209.47 237.732 209.918 236.779 210.696 235.73C212.264 233.616 215.098 231.215 220.159 229.502L220.175 229.497L220.19 229.492C224.964 227.981 229.494 227.725 233.167 228.105C235.736 228.357 237.898 228.859 239.423 229.301C240.187 229.522 240.794 229.728 241.216 229.882C241.427 229.959 241.592 230.023 241.707 230.069C241.765 230.092 241.81 230.11 241.843 230.124L241.882 230.14L241.894 230.145L241.899 230.147L241.9 230.148L241.901 230.148C241.901 230.148 241.902 230.149 241.251 231.664L241.902 230.149L242.667 230.478L242.857 231.289L274.298 366.013L274.771 368.037H272.692H207.896Z" fill="#04B1ED" stroke="white" stroke-width="3.29843"/>
<path d="M98.3595 174.159C98.5869 172.918 98.8918 171.417 99.2785 169.848C99.7671 167.865 100.396 165.732 101.183 163.863C101.945 162.05 102.951 160.247 104.306 159.168L104.312 159.163L104.319 159.158C107.166 156.938 109.689 155.793 111.901 155.311C114.125 154.827 115.941 155.035 117.33 155.383L117.535 155.434L117.721 155.536C119.735 156.637 120.681 159.347 119.035 161.273C118.847 161.507 118.68 161.704 118.526 161.884C118.185 162.283 117.914 162.602 117.645 163.073L117.605 163.144L117.558 163.21C114.511 167.509 110.333 175.924 110.449 189.09C110.449 189.09 110.449 189.09 110.449 189.091L108.8 189.105C108.885 196.81 106.287 203.353 104.099 208.866C103.223 211.071 102.413 213.112 101.866 214.995L98.3595 174.159ZM98.3595 174.159C97.9334 173.653 97.4806 173.065 97.0366 172.399C95.3398 169.854 93.8167 166.252 94.3001 161.837L94.3977 160.945L93.7023 160.379L92.6607 161.657C93.7023 160.379 93.702 160.378 93.7017 160.378L93.7008 160.377L93.6986 160.376L93.6921 160.37L93.6708 160.353C93.653 160.339 93.6278 160.319 93.5958 160.293C93.5317 160.243 93.4398 160.171 93.3227 160.082C93.0887 159.903 92.7529 159.654 92.3362 159.362C91.5059 158.781 90.3389 158.021 89.0041 157.32C87.6776 156.624 86.1321 155.957 84.5517 155.599C82.9825 155.244 81.235 155.161 79.6136 155.812C78.3748 156.308 77.591 157.281 77.1029 158.245C76.6179 159.203 76.3616 160.27 76.2207 161.201C76.1357 161.763 76.0884 162.304 76.0637 162.787C75.6614 162.766 75.2147 162.76 74.7413 162.782C72.9473 162.865 70.4565 163.37 68.7066 165.364C66.9392 167.377 66.7965 170.05 66.9581 171.913C67.0171 172.593 67.1209 173.217 67.2304 173.74C66.8549 173.885 66.4369 174.067 66.0038 174.292C64.5418 175.05 62.6439 176.434 61.9149 178.789L61.9051 178.821L61.8966 178.853C61.2803 181.17 61.9138 183.439 62.57 184.985C62.7924 185.509 63.0287 185.977 63.2456 186.368C62.9143 186.713 62.5567 187.148 62.2175 187.682C61.1647 189.341 60.3657 191.842 60.9038 195.349L60.9054 195.359L60.9071 195.369C60.9726 195.763 61.1556 196.166 61.2889 196.441C61.4478 196.768 61.6562 197.151 61.8964 197.567C62.3785 198.404 63.0362 199.461 63.799 200.654C64.8272 202.262 66.0742 204.158 67.3814 206.146C68.0122 207.106 68.6571 208.086 69.2982 209.066C71.2784 212.093 73.2285 215.121 74.6812 217.58C75.4089 218.812 75.9947 219.872 76.3937 220.702C76.5936 221.118 76.7335 221.449 76.8202 221.698C76.8673 221.834 76.8887 221.917 76.8981 221.957C76.8976 221.961 76.8971 221.965 76.8965 221.969C76.888 222.029 76.8703 222.153 76.834 222.367C76.7753 222.711 76.6863 223.189 76.5673 223.797C76.3298 225.011 75.98 226.709 75.5326 228.826C74.6384 233.056 73.3601 238.935 71.8249 245.906C68.7547 259.847 64.6608 278.146 60.5663 296.349C56.4719 314.552 52.3775 332.657 49.3067 346.212C47.7713 352.99 46.4918 358.63 45.5961 362.575C45.1483 364.548 44.7964 366.097 44.5565 367.153L44.2826 368.358L44.2124 368.667L44.1947 368.745L44.1902 368.765L44.1891 368.77C44.1888 368.771 44.1887 368.771 45.7969 369.137L44.1887 368.771L43.7306 370.786H45.7969H98.5187H100.152L100.168 369.153L98.5187 369.137C100.168 369.153 100.168 369.152 100.168 369.151L100.168 369.146L100.168 369.126L100.169 369.046L100.172 368.73L100.184 367.496C100.195 366.415 100.212 364.828 100.233 362.807C100.276 358.763 100.34 352.978 100.422 346.016C100.586 332.091 100.825 313.455 101.124 294.609C101.423 275.763 101.781 256.713 102.185 241.957C102.386 234.578 102.599 228.281 102.82 223.624C102.931 221.294 103.044 219.387 103.157 217.964C103.276 216.473 103.386 215.684 103.451 215.45L98.3595 174.159Z" fill="#FAC0A1" stroke="white" stroke-width="3.29843"/>
<path d="M107.126 369.137H42.3296L73.7714 234.413C73.7714 234.413 77.1188 232.975 82.0204 232.495C85.4874 232.136 89.7912 232.375 94.3341 233.814C103.898 237.05 104.496 242.683 104.496 242.683L107.126 369.137Z" fill="#04B1ED"/>
<path d="M107.126 367.681H108.81L108.775 365.997L106.145 239.544L106.143 239.474L106.136 239.404L104.496 239.578C106.136 239.404 106.136 239.403 106.136 239.401L106.135 239.398L106.135 239.392L106.133 239.379L106.129 239.345C106.126 239.32 106.121 239.29 106.115 239.254C106.104 239.182 106.087 239.089 106.063 238.978C106.014 238.754 105.935 238.454 105.807 238.095C105.552 237.376 105.104 236.423 104.326 235.374C102.758 233.26 99.9237 230.858 94.8627 229.146L94.8474 229.141L94.8319 229.136C90.0583 227.624 85.5276 227.368 81.855 227.749C79.286 228 77.1244 228.503 75.5993 228.944C74.8353 229.165 74.2281 229.372 73.8061 229.526C73.595 229.603 73.43 229.667 73.3146 229.713C73.2569 229.736 73.2115 229.754 73.179 229.768L73.1399 229.784L73.1276 229.789L73.1234 229.791L73.1217 229.792L73.121 229.792C73.1206 229.792 73.1203 229.792 73.7714 231.307L73.1203 229.792L72.3547 230.121L72.1653 230.933L40.7235 365.657L40.2512 367.681H42.3296H107.126Z" fill="#04B1ED" stroke="white" stroke-width="3.29843"/>
</g>
<circle cx="157.775" cy="188.56" r="9.34555" fill="#04B1ED"/>
<path d="M455.427 226.089H485.077L459.392 181.786C472.665 175.063 481.629 161.617 481.629 146.791C481.629 123.864 463.184 105.419 440.257 105.419H391.989V226.089H419.57V186.44H432.672L455.427 226.089ZM419.57 131.277H440.257C447.842 131.277 454.048 138 454.048 146.791C454.048 155.583 447.842 162.306 440.257 162.306H419.57V131.277ZM563.421 228.502C598.071 228.502 626.17 201.265 626.17 165.754C626.17 130.242 598.071 103.005 563.421 103.005C528.771 103.005 500.673 130.242 500.673 165.754C500.673 201.265 528.771 228.502 563.421 228.502ZM563.421 201.61C543.769 201.61 528.254 187.302 528.254 165.754C528.254 144.206 543.769 129.898 563.421 129.898C583.073 129.898 598.588 144.206 598.588 165.754C598.588 187.302 583.073 201.61 563.421 201.61ZM723.515 226.089H753.683L712.655 105.419H677.488L636.46 226.089H666.628L672.661 207.126H717.482L723.515 226.089ZM680.936 181.269L695.071 136.965L709.207 181.269H680.936ZM821.721 105.419H773.453V226.089H821.721C854.992 226.089 880.332 199.886 880.332 165.754C880.332 131.621 854.992 105.419 821.721 105.419ZM821.721 199.541H801.035V131.966H821.721C840.684 131.966 853.785 145.067 853.785 165.754C853.785 186.44 840.684 199.541 821.721 199.541Z" fill="#264861"/>
<path d="M968.76 226.089H998.41L972.724 181.786C985.998 175.063 994.962 161.617 994.962 146.791C994.962 123.864 976.517 105.419 953.59 105.419H905.322V226.089H932.903V186.44H946.005L968.76 226.089ZM932.903 131.277H953.59C961.175 131.277 967.38 138 967.38 146.791C967.38 155.583 961.175 162.306 953.59 162.306H932.903V131.277ZM1065.7 228.502C1092.25 228.502 1112.25 212.988 1112.25 187.13V105.419H1084.66V184.716C1084.66 193.853 1080.35 201.61 1065.7 201.61C1051.05 201.61 1046.74 193.853 1046.74 184.716V105.419H1019.16V187.13C1019.16 212.988 1039.15 228.502 1065.7 228.502ZM1169.2 199.541V105.419H1141.62V226.089H1212.3V199.541H1169.2ZM1261.51 199.541V178.166H1304.6V151.963H1261.51V131.966H1308.91V105.419H1233.93V226.089H1309.78V199.541H1261.51ZM1377.05 228.502C1403.26 228.502 1421.87 214.711 1421.87 191.439C1421.87 165.926 1401.36 159.548 1383.09 154.032C1364.3 148.343 1361.37 144.55 1361.37 139.034C1361.37 134.207 1365.68 129.898 1374.29 129.898C1385.33 129.898 1391.02 135.241 1395.15 143.861L1418.43 130.242C1409.63 112.487 1394.12 103.005 1374.29 103.005C1353.44 103.005 1333.78 116.451 1333.78 139.724C1333.78 162.823 1351.37 171.443 1369.3 176.442C1387.4 181.441 1394.29 184.371 1394.29 191.784C1394.29 196.438 1391.02 201.61 1377.91 201.61C1364.3 201.61 1356.88 194.887 1352.57 184.889L1328.78 198.68C1335.51 216.435 1351.71 228.502 1377.05 228.502Z" fill="#04B1ED"/>
</svg>
