<svg width="80" height="80" viewBox="0 0 80 80" fill="none" xmlns="http://www.w3.org/2000/svg">
<g clip-path="url(#clip0)">
<circle cx="16.4981" cy="39.6192" r="16.0958" fill="white"/>
<circle cx="16.4694" cy="39.5905" r="16.4694" fill="#04B1ED"/>
<circle cx="16.4694" cy="39.5905" r="15.2048" fill="white"/>
<mask id="mask0" mask-type="alpha" maskUnits="userSpaceOnUse" x="1" y="24" width="31" height="31">
<circle cx="16.4979" cy="39.6195" r="14.7161" fill="#C4C4C4"/>
</mask>
<g mask="url(#mask0)">
<circle cx="16.4979" cy="39.6195" r="14.7161" fill="#264861"/>
<path d="M4.36914 49.2784L8.39309 26.3994" stroke="white" stroke-width="2.24191" stroke-dasharray="6.9 0.57"/>
<path d="M28.3975 49.3927L24.3735 26.5137" stroke="white" stroke-width="2.24191" stroke-dasharray="6.9 0.57"/>
<path d="M14.5721 47.3143L14.7202 48.3796C12.9364 47.8045 11.5046 46.3825 10.9294 44.6008L12.0087 44.7509C12.0088 44.7509 12.009 44.7509 12.0091 44.7509C13.3286 44.9394 14.3836 45.9945 14.5721 47.314C14.5721 47.3141 14.5721 47.3142 14.5721 47.3143ZM22.0528 44.6008C21.4776 46.3825 20.0458 47.8045 18.262 48.3796L18.4101 47.3143C18.4101 47.3141 18.4101 47.314 18.4101 47.3138C18.5986 45.9944 19.6536 44.9394 20.973 44.7509C20.9732 44.7509 20.9733 44.7509 20.9735 44.7508L22.0528 44.6008ZM16.4911 34.6753C12.0103 34.6753 8.33451 38.3511 8.33451 42.8319C8.33451 47.3127 12.0103 50.9885 16.4911 50.9885C20.9718 50.9885 24.6476 47.3127 24.6476 42.8319C24.6476 38.3511 20.9718 34.6753 16.4911 34.6753ZM16.4911 36.993C18.8724 36.993 20.9477 38.4612 21.8469 40.5242C20.5429 39.9592 18.6225 39.3508 16.4911 39.3508C14.3597 39.3508 12.4393 39.9592 11.1352 40.5242C12.0344 38.4612 14.1097 36.993 16.4911 36.993ZM16.4911 43.9953C15.8497 43.9953 15.3277 43.4732 15.3277 42.8319C15.3277 42.1906 15.8497 41.6685 16.4911 41.6685C17.1324 41.6685 17.6545 42.1906 17.6545 42.8319C17.6545 43.4732 17.1324 43.9953 16.4911 43.9953Z" fill="#BABABA" stroke="white" stroke-width="0.45988" stroke-linecap="round" stroke-linejoin="bevel"/>
<path d="M22.5599 40.9399C22.6003 41.1039 22.6322 41.2609 22.656 41.3907L22.2893 45.6609C22.2321 45.4639 22.1474 45.2505 22.0559 45.0199C21.827 44.4435 21.5553 43.7593 21.5642 42.9536L21.3918 42.9521C21.3918 42.952 21.3918 42.9519 21.3918 42.9519C21.4039 41.5753 20.967 40.6953 20.6485 40.2458L20.6435 40.2388L20.6393 40.2315C20.6112 40.1821 20.5828 40.1489 20.5472 40.1071C20.5311 40.0883 20.5136 40.0677 20.494 40.0432C20.3218 39.8418 20.4208 39.5585 20.6314 39.4433L20.6508 39.4327L20.6722 39.4273C20.8175 39.3909 21.0074 39.3692 21.2399 39.4198C21.4713 39.4702 21.7351 39.5899 22.0328 39.8221L22.0328 39.8221L22.0342 39.8232C22.1759 39.936 22.281 40.1244 22.3608 40.314C22.443 40.5095 22.5088 40.7326 22.5599 40.9399Z" fill="#FAC0A1" stroke="white" stroke-width="0.34491"/>
<path d="M21.739 61.6072H21.5629L21.5666 61.4311L21.8416 48.2082L21.8418 48.2008L21.8426 48.1935L22.0141 48.2117C21.8426 48.1935 21.8426 48.1934 21.8426 48.1933L21.8426 48.193L21.8427 48.1923L21.8429 48.1909L21.8433 48.1874L21.8447 48.1779C21.8459 48.1704 21.8477 48.1607 21.8502 48.149C21.8553 48.1256 21.8636 48.0942 21.8769 48.0567C21.9036 47.9815 21.9504 47.8818 22.0318 47.7721C22.1958 47.5511 22.4922 47.3 23.0214 47.1209L23.0214 47.1209L23.0246 47.1198C23.5238 46.9618 23.9975 46.935 24.3816 46.9748C24.6502 47.0011 24.8762 47.0536 25.0357 47.0998C25.1156 47.1229 25.1791 47.1445 25.2232 47.1606C25.2453 47.1687 25.2625 47.1753 25.2746 47.1801L25.2888 47.1859L25.2929 47.1876L25.2942 47.1881L25.2946 47.1883L25.2948 47.1884L25.2949 47.1884L25.2268 47.3469L25.2949 47.1885L25.375 47.2229L25.3948 47.3077L28.6826 61.3955L28.732 61.6072H28.5146H21.739Z" fill="#04B1ED" stroke="white" stroke-width="0.34491"/>
<path d="M10.382 40.8813C10.3416 41.0453 10.3097 41.2023 10.2859 41.3321L10.6526 45.6023C10.7097 45.4053 10.7945 45.1919 10.886 44.9613C11.1149 44.3849 11.3866 43.7007 11.3777 42.895L11.5501 42.8935C11.5501 42.8934 11.5501 42.8933 11.5501 42.8933C11.538 41.5167 11.9749 40.6367 12.2934 40.1872L12.2983 40.1803L12.3026 40.1729C12.3307 40.1236 12.3591 40.0903 12.3947 40.0485C12.4108 40.0297 12.4283 40.0091 12.4479 39.9846C12.6201 39.7832 12.5211 39.4999 12.3105 39.3847L12.2911 39.3741L12.2697 39.3687C12.1244 39.3323 11.9345 39.3106 11.702 39.3612C11.4706 39.4116 11.2068 39.5313 10.9091 39.7635L10.9091 39.7635L10.9077 39.7646C10.766 39.8774 10.6609 40.0658 10.5811 40.2554C10.4989 40.4509 10.4331 40.674 10.382 40.8813Z" fill="#FAC0A1" stroke="white" stroke-width="0.34491"/>
<path d="M11.2029 61.7208H4.42725L7.71505 47.6331C7.71505 47.6331 8.06508 47.4827 8.57763 47.4325C8.94016 47.3949 9.3902 47.42 9.86525 47.5704C10.8653 47.9088 10.9278 48.4979 10.9278 48.4979L11.2029 61.7208Z" fill="#04B1ED"/>
<path d="M11.2029 61.5691H11.3789L11.3753 61.393L11.1003 48.1701L11.1001 48.1627L11.0993 48.1555L10.9278 48.1737C11.0993 48.1555 11.0993 48.1553 11.0993 48.1552L11.0993 48.1549L11.0992 48.1543L11.099 48.1528L11.0986 48.1493L11.0972 48.1398C11.096 48.1323 11.0942 48.1226 11.0917 48.1109C11.0866 48.0875 11.0783 48.0562 11.065 48.0186C11.0383 47.9434 10.9915 47.8437 10.9101 47.7341C10.7461 47.513 10.4497 47.2619 9.92052 47.0828L9.92053 47.0828L9.9173 47.0818C9.41814 46.9237 8.94437 46.8969 8.56034 46.9367C8.29169 46.963 8.06566 47.0156 7.90619 47.0617C7.8263 47.0848 7.76281 47.1064 7.71868 47.1225C7.69661 47.1306 7.67935 47.1373 7.66728 47.1421L7.65311 47.1478L7.64901 47.1495L7.64773 47.1501L7.64728 47.1503L7.64711 47.1503L7.64703 47.1504L7.71505 47.3088L7.64697 47.1504L7.56691 47.1848L7.54711 47.2696L4.2593 61.3574L4.20991 61.5691H4.42725H11.2029Z" fill="#04B1ED" stroke="white" stroke-width="0.34491"/>
</g>
<circle cx="16.4987" cy="42.8386" r="0.977244" fill="#04B1ED"/>
<path d="M39.4953 41.7979H40.6822L39.654 40.0245C40.1854 39.7554 40.5442 39.2171 40.5442 38.6237C40.5442 37.706 39.8058 36.9676 38.8881 36.9676H36.956V41.7979H38.0601V40.2108H38.5845L39.4953 41.7979ZM38.0601 38.0027H38.8881C39.1917 38.0027 39.4401 38.2718 39.4401 38.6237C39.4401 38.9756 39.1917 39.2447 38.8881 39.2447H38.0601V38.0027ZM43.8181 41.8945C45.2051 41.8945 46.3299 40.8042 46.3299 39.3827C46.3299 37.9613 45.2051 36.871 43.8181 36.871C42.4312 36.871 41.3064 37.9613 41.3064 39.3827C41.3064 40.8042 42.4312 41.8945 43.8181 41.8945ZM43.8181 40.818C43.0315 40.818 42.4105 40.2453 42.4105 39.3827C42.4105 38.5202 43.0315 37.9475 43.8181 37.9475C44.6048 37.9475 45.2258 38.5202 45.2258 39.3827C45.2258 40.2453 44.6048 40.818 43.8181 40.818ZM50.2264 41.7979H51.434L49.7917 36.9676H48.3841L46.7418 41.7979H47.9493L48.1908 41.0388H49.9849L50.2264 41.7979ZM48.5221 40.0038L49.0879 38.2304L49.6537 40.0038H48.5221ZM54.1575 36.9676H52.2254V41.7979H54.1575C55.4892 41.7979 56.5036 40.749 56.5036 39.3827C56.5036 38.0165 55.4892 36.9676 54.1575 36.9676ZM54.1575 40.7352H53.3294V38.0303H54.1575C54.9165 38.0303 55.4409 38.5547 55.4409 39.3827C55.4409 40.2108 54.9165 40.7352 54.1575 40.7352Z" fill="#264861"/>
<path d="M60.0431 41.7979H61.23L60.2019 40.0245C60.7332 39.7554 61.092 39.2171 61.092 38.6237C61.092 37.706 60.3537 36.9676 59.4359 36.9676H57.5038V41.7979H58.6079V40.2108H59.1323L60.0431 41.7979ZM58.6079 38.0027H59.4359C59.7395 38.0027 59.9879 38.2718 59.9879 38.6237C59.9879 38.9756 59.7395 39.2447 59.4359 39.2447H58.6079V38.0027ZM63.9235 41.8945C64.9862 41.8945 65.7866 41.2734 65.7866 40.2384V36.9676H64.6826V40.1418C64.6826 40.5075 64.5101 40.818 63.9235 40.818C63.337 40.818 63.1645 40.5075 63.1645 40.1418V36.9676H62.0605V40.2384C62.0605 41.2734 62.8609 41.8945 63.9235 41.8945ZM68.0664 40.7352V36.9676H66.9624V41.7979H69.7915V40.7352H68.0664ZM71.7613 40.7352V39.8796H73.4864V38.8307H71.7613V38.0303H73.6589V36.9676H70.6573V41.7979H73.6934V40.7352H71.7613ZM76.3864 41.8945C77.4353 41.8945 78.1805 41.3424 78.1805 40.4109C78.1805 39.3896 77.3594 39.1343 76.6279 38.9135C75.8758 38.6858 75.7585 38.534 75.7585 38.3132C75.7585 38.12 75.931 37.9475 76.276 37.9475C76.7176 37.9475 76.9453 38.1614 77.1109 38.5064L78.0425 37.9613C77.6906 37.2505 77.0695 36.871 76.276 36.871C75.4411 36.871 74.6544 37.4093 74.6544 38.3408C74.6544 39.2654 75.3583 39.6105 76.0759 39.8106C76.8004 40.0107 77.0764 40.128 77.0764 40.4247C77.0764 40.611 76.9453 40.818 76.4209 40.818C75.8758 40.818 75.5791 40.5489 75.4066 40.1487L74.4543 40.7007C74.7234 41.4114 75.3721 41.8945 76.3864 41.8945Z" fill="#04B1ED"/>
</g>
<defs>
<clipPath id="clip0">
<rect width="80" height="80" fill="white"/>
</clipPath>
</defs>
</svg>
